<?xml version="1.0" standalone="no"?>
<!DOCTYPE svg PUBLIC "-//W3C//DTD SVG 20010904//EN"
 "http://www.w3.org/TR/2001/REC-SVG-20010904/DTD/svg10.dtd">
<svg version="1.0" xmlns="http://www.w3.org/2000/svg"
 width="1024.000000pt" height="1024.000000pt" viewBox="0 0 1024.000000 1024.000000"
 preserveAspectRatio="xMidYMid meet">

<g transform="translate(0.000000,1024.000000) scale(0.100000,-0.100000)"
fill="#000000" stroke="none">
<path d="M0 5120 l0 -5120 5120 0 5120 0 0 5120 0 5120 -5120 0 -5120 0 0
-5120z m5532 3845 c1476 -143 2690 -1123 3180 -2565 102 -301 166 -634 189
-985 36 -556 -59 -1160 -263 -1665 -287 -710 -777 -1310 -1418 -1737 -495
-330 -1014 -521 -1635 -599 -175 -23 -650 -26 -825 -6 -753 86 -1397 352
-1980 818 -163 130 -453 418 -573 569 -446 559 -709 1188 -804 1920 -22 175
-26 707 -5 880 54 449 155 815 332 1207 370 818 1053 1497 1870 1861 369 164
837 281 1240 310 134 10 560 5 692 -8z"/>
<path d="M4910 8644 c-639 -58 -1115 -211 -1600 -516 -357 -226 -734 -590
-982 -951 -329 -481 -537 -1044 -599 -1628 -16 -144 -15 -556 0 -714 17 -166
46 -335 87 -498 19 -76 34 -142 34 -145 0 -4 4 -1 9 6 6 11 13 7 30 -14 11
-14 21 -32 21 -38 0 -7 9 -31 20 -54 11 -22 20 -46 20 -52 0 -6 5 -8 11 -4 8
4 9 0 4 -15 -4 -14 -2 -23 9 -27 8 -3 20 -21 26 -40 6 -19 15 -34 20 -34 5 0
14 -16 21 -35 7 -19 17 -35 21 -35 4 0 8 -9 8 -20 0 -11 4 -20 9 -20 9 0 71
-118 71 -133 0 -3 13 -25 29 -49 60 -90 117 -220 105 -239 -3 -5 0 -9 6 -9 6
0 8 -4 5 -10 -3 -5 -3 -15 1 -21 3 -6 21 15 39 48 59 106 681 1294 950 1813
81 157 230 443 330 635 367 704 720 1384 1035 1995 177 344 344 667 371 718
l50 92 -63 -2 c-35 0 -79 -3 -98 -4z"/>
<path d="M5226 8618 c9 -18 128 -244 264 -503 373 -709 992 -1890 1222 -2335
113 -217 293 -564 400 -770 338 -649 712 -1368 808 -1554 107 -205 87 -199
175 -51 67 113 172 323 220 440 105 252 189 572 230 875 22 162 31 563 16 741
-65 772 -373 1484 -898 2080 -389 442 -945 793 -1525 963 -158 47 -317 82
-479 105 -135 20 -342 41 -412 41 l-38 0 17 -32z"/>
<path d="M5113 7661 c-9 -11 -118 -219 -243 -463 -124 -244 -297 -582 -384
-753 -87 -170 -178 -346 -201 -390 -23 -44 -78 -150 -123 -235 -132 -256 -337
-651 -465 -895 -107 -205 -428 -825 -555 -1072 -30 -60 -43 -95 -37 -101 6 -6
179 28 450 89 242 54 464 98 493 98 73 1 119 -25 179 -102 186 -236 549 -390
918 -390 359 1 686 139 904 382 87 97 134 124 211 124 35 0 209 -36 475 -98
231 -54 431 -99 445 -99 14 -1 24 4 23 10 -1 7 -78 157 -171 335 -93 178 -274
527 -402 774 -128 248 -281 542 -340 655 -131 249 -597 1146 -885 1703 -117
225 -219 417 -228 428 -21 24 -43 24 -64 0z m224 -1690 c507 -99 864 -508 890
-1021 14 -269 -62 -523 -217 -728 -110 -147 -237 -248 -415 -333 -273 -131
-583 -138 -868 -19 -258 107 -458 301 -583 564 -75 160 -89 230 -89 456 0 230
14 298 95 468 99 208 237 359 430 474 232 138 505 188 757 139z"/>
<path d="M5044 5530 c-243 -44 -437 -211 -515 -445 -34 -99 -34 -287 -2 -390
86 -270 337 -459 613 -459 112 -1 180 14 275 60 137 65 249 182 314 326 41 92
55 160 54 273 -3 339 -270 621 -604 639 -46 3 -107 1 -135 -4z m231 -317 c96
-51 158 -153 159 -263 0 -81 -15 -127 -63 -188 -52 -65 -126 -104 -211 -110
-98 -7 -160 17 -230 87 -47 47 -59 67 -74 121 -20 71 -17 141 9 204 28 68 112
144 183 167 48 15 183 5 227 -18z"/>
<path d="M1865 4170 c-3 -6 1 -7 9 -4 18 7 21 14 7 14 -6 0 -13 -4 -16 -10z"/>
<path d="M3784 3422 c-962 -213 -1297 -291 -1305 -304 -3 -5 -9 -9 -13 -9 -3
1 -6 -1 -6 -4 0 -3 0 -7 0 -10 0 -3 9 -1 21 5 18 10 19 9 11 -7 -8 -17 8 -69
19 -58 3 2 6 -8 7 -22 2 -21 -1 -23 -12 -14 -8 7 -17 8 -20 3 -7 -12 28 -44
39 -35 4 5 6 1 2 -8 -6 -19 45 -74 58 -62 4 5 6 1 2 -8 -6 -19 164 -194 178
-182 4 4 5 3 2 -3 -7 -12 25 -47 36 -39 4 3 5 2 2 -2 -7 -9 16 -34 26 -27 5 3
8 1 7 -4 -3 -10 122 -121 237 -208 392 -299 888 -525 1367 -623 263 -55 386
-66 718 -65 294 0 327 2 492 27 622 97 1147 326 1633 713 140 112 416 388 524
523 75 96 81 106 62 113 -11 4 -94 23 -183 43 -282 63 -1038 235 -1167 265
-68 17 -133 30 -145 30 -11 0 -68 -34 -126 -76 -199 -144 -361 -228 -565 -294
-580 -185 -1224 -65 -1699 319 -27 21 -59 41 -71 43 -12 3 -71 -6 -131 -20z
m-1259 -432 c4 7 12 1 21 -15 8 -15 11 -32 7 -38 -4 -6 0 -8 10 -4 16 6 33
-18 18 -27 -11 -7 -46 32 -46 52 0 9 -5 17 -12 17 -7 0 -18 7 -25 15 -11 12
-11 12 4 2 12 -10 18 -10 23 -2z m120 -160 c27 -27 47 -50 44 -50 -3 0 -27 23
-54 50 -27 28 -47 50 -44 50 3 0 27 -22 54 -50z"/>
<path d="M2450 3036 c0 -2 8 -10 18 -17 15 -13 16 -12 3 4 -13 16 -21 21 -21
13z"/>
</g>
</svg>
